{
	"asset":{
		"generator":"Khronos glTF Blender I/O v4.1.63",
		"version":"2.0"
	},
	"scene":0,
	"scenes":[
		{
			"name":"Scene",
			"nodes":[
				2
			]
		}
	],
	"nodes":[
		{
			"name":"Looks"
		},
		{
			"mesh":0,
			"name":"note_quaver",
			"rotation":[
				0.7071969509124756,
				-0.0007138604996725917,
				-0.0013002903433516622,
				0.7070150375366211
			],
			"scale":[
				0.7538831830024719,
				0.7538831233978271,
				0.7538832426071167
			]
		},
		{
			"children":[
				0,
				1
			],
			"name":"AI57_004"
		}
	],
	"materials":[
		{
			"doubleSided":true,
			"name":"Gradient",
			"pbrMetallicRoughness":{
				"baseColorTexture":{
					"index":0
				},
				"metallicFactor":0,
				"roughnessFactor":0.5
			}
		}
	],
	"meshes":[
		{
			"name":"note_quaver",
			"primitives":[
				{
					"attributes":{
						"POSITION":0,
						"NORMAL":1,
						"TEXCOORD_0":2
					},
					"indices":3,
					"material":0
				}
			]
		}
	],
	"textures":[
		{
			"sampler":0,
			"source":0
		}
	],
	"images":[
		{
			"mimeType":"image/png",
			"name":"ForReal",
			"uri":"textures/ForReal.png"
		}
	],
	"accessors":[
		{
			"bufferView":0,
			"componentType":5126,
			"count":3179,
			"max":[
				117.66268920898438,
				51.1522216796875,
				196.7918701171875
			],
			"min":[
				-150.68826293945312,
				-51.15238952636719,
				-296.21893310546875
			],
			"type":"VEC3"
		},
		{
			"bufferView":1,
			"componentType":5126,
			"count":3179,
			"type":"VEC3"
		},
		{
			"bufferView":2,
			"componentType":5126,
			"count":3179,
			"type":"VEC2"
		},
		{
			"bufferView":3,
			"componentType":5123,
			"count":17280,
			"type":"SCALAR"
		}
	],
	"bufferViews":[
		{
			"buffer":0,
			"byteLength":38148,
			"byteOffset":0,
			"target":34962
		},
		{
			"buffer":0,
			"byteLength":38148,
			"byteOffset":38148,
			"target":34962
		},
		{
			"buffer":0,
			"byteLength":25432,
			"byteOffset":76296,
			"target":34962
		},
		{
			"buffer":0,
			"byteLength":34560,
			"byteOffset":101728,
			"target":34963
		}
	],
	"samplers":[
		{
			"magFilter":9729,
			"minFilter":9987
		}
	],
	"buffers":[
		{
			"byteLength":136288,
			"uri":"BakedMusicalNote.bin"
		}
	]
}
